<?xml version="1.0" encoding="UTF-8" standalone="no"?>
<svg
   xmlns:dc="http://purl.org/dc/elements/1.1/"
   xmlns:cc="http://creativecommons.org/ns#"
   xmlns:rdf="http://www.w3.org/1999/02/22-rdf-syntax-ns#"
   xmlns:svg="http://www.w3.org/2000/svg"
   xmlns="http://www.w3.org/2000/svg"
   xmlns:xlink="http://www.w3.org/1999/xlink"
   xmlns:sodipodi="http://sodipodi.sourceforge.net/DTD/sodipodi-0.dtd"
   xmlns:inkscape="http://www.inkscape.org/namespaces/inkscape"
   width="64"
   height="64"
   viewBox="0 0 64 64"
   version="1.1"
   id="svg8"
   sodipodi:docname="rosette.svg"
   inkscape:version="1.0.2 (e86c870879, 2021-01-15)">
  <defs
     id="defs2">
    <inkscape:path-effect
       effect="mirror_symmetry"
       start_point="42,46"
       end_point="20,24"
       center_point="31,35"
       id="path-effect2085"
       is_visible="true"
       lpeversion="1"
       mode="free"
       discard_orig_path="false"
       fuse_paths="false"
       oposite_fuse="false"
       split_items="false" />
    <inkscape:path-effect
       effect="mirror_symmetry"
       start_point="58,6"
       end_point="58,60"
       center_point="58,33"
       id="path-effect870"
       is_visible="true"
       lpeversion="1"
       mode="vertical"
       discard_orig_path="false"
       fuse_paths="false"
       oposite_fuse="false"
       split_items="false" />
    <linearGradient
       inkscape:collect="always"
       id="linearGradient1228">
      <stop
         style="stop-color:#faecce;stop-opacity:1"
         offset="0"
         id="stop1224" />
      <stop
         style="stop-color:#fed678;stop-opacity:1"
         offset="1"
         id="stop1226" />
    </linearGradient>
    <linearGradient
       inkscape:collect="always"
       xlink:href="#linearGradient1228"
       id="linearGradient1230"
       x1="32"
       y1="22"
       x2="44"
       y2="32"
       gradientUnits="userSpaceOnUse" />
  </defs>
  <sodipodi:namedview
     id="base"
     pagecolor="#ffffff"
     bordercolor="#666666"
     borderopacity="1.0"
     inkscape:pageopacity="0.0"
     inkscape:pageshadow="2"
     inkscape:zoom="2.8"
     inkscape:cx="15.424001"
     inkscape:cy="1.1088768"
     inkscape:document-units="px"
     inkscape:current-layer="layer1"
     inkscape:document-rotation="0"
     showgrid="true"
     units="px"
     inkscape:snap-object-midpoints="true"
     inkscape:window-width="1920"
     inkscape:window-height="1016"
     inkscape:window-x="0"
     inkscape:window-y="0"
     inkscape:window-maximized="1"
     inkscape:snap-grids="true"
     inkscape:snap-intersection-paths="true"
     inkscape:object-paths="false"
     inkscape:snap-bbox="false"
     inkscape:snap-smooth-nodes="true"
     inkscape:snap-global="true"
     inkscape:snap-page="true">
    <inkscape:grid
       type="xygrid"
       id="grid833"
       empspacing="4" />
  </sodipodi:namedview>
  <metadata
     id="metadata5">
    <rdf:RDF>
      <cc:Work
         rdf:about="">
        <dc:format>image/svg+xml</dc:format>
        <dc:type
           rdf:resource="http://purl.org/dc/dcmitype/StillImage" />
        <dc:title></dc:title>
      </cc:Work>
    </rdf:RDF>
  </metadata>
  <g
     inkscape:label="Ebene 1"
     inkscape:groupmode="layer"
     id="layer1">
    <path
       style="opacity:1;fill:#f60000;fill-opacity:1;stroke:#fb0000;stroke-width:4;stroke-linecap:butt;stroke-linejoin:round;stroke-miterlimit:4;stroke-dasharray:none;stroke-opacity:1;paint-order:markers fill stroke"
       d="m 32,40 h 12 c 0,8 3,16 8,22 H 40 C 35,56 32,48 32,40 Z"
       id="path2214"
       sodipodi:nodetypes="ccccc" />
    <path
       style="fill:#f60000;fill-opacity:1;stroke:#fb0000;stroke-width:4;stroke-linecap:butt;stroke-linejoin:round;stroke-miterlimit:4;stroke-dasharray:none;stroke-opacity:1;paint-order:markers fill stroke"
       d="M 32,40 H 20 c 0,8 -3,16 -8,22 h 12 c 5,-6 8,-14 8,-22 z"
       id="path2214-6"
       sodipodi:nodetypes="ccccc" />
    <path
       sodipodi:type="star"
       style="opacity:1;fill:#fd6f72;fill-opacity:1;stroke:#e90000;stroke-width:4;stroke-linecap:butt;stroke-linejoin:round;stroke-miterlimit:4;stroke-dasharray:none;stroke-opacity:1;paint-order:markers fill stroke"
       id="path2162"
       sodipodi:sides="10"
       sodipodi:cx="32"
       sodipodi:cy="24"
       sodipodi:r1="22"
       sodipodi:r2="17.917132"
       sodipodi:arg1="-1.5707963"
       sodipodi:arg2="-1.256637"
       inkscape:flatsided="false"
       inkscape:rounded="0"
       inkscape:randomized="0"
       d="m 32.000001,2 5.536698,4.9597956 7.394577,-0.7581691 1.563988,7.2669485 6.42798,3.733052 L 49.917131,24 52.923243,30.798374 46.495264,34.531426 44.931275,41.798374 37.536698,41.040205 31.999999,46 26.463301,41.040204 19.068724,41.798374 17.504736,34.531425 11.076756,30.798373 14.082869,24 l -3.006112,-6.798374 6.427979,-3.733052 1.563989,-7.2669482 7.394577,0.7581695 z" />
    <path
       id="path2162-2"
       style="fill:#fa3237;fill-opacity:1;stroke:none;stroke-width:4;stroke-linecap:butt;stroke-linejoin:round;stroke-miterlimit:4;stroke-dasharray:none;stroke-opacity:1;paint-order:markers fill stroke"
       sodipodi:type="inkscape:offset"
       inkscape:radius="-5.0345192"
       inkscape:original="M 32 2 L 26.462891 6.9589844 L 19.068359 6.2011719 L 17.503906 13.46875 L 11.076172 17.201172 L 14.082031 24 L 11.076172 30.798828 L 17.503906 34.53125 L 19.068359 41.798828 L 26.462891 41.041016 L 32 46 L 37.537109 41.041016 L 44.931641 41.798828 L 46.496094 34.53125 L 52.923828 30.798828 L 49.917969 24 L 52.923828 17.201172 L 46.496094 13.46875 L 44.931641 6.2011719 L 37.537109 6.9589844 L 32 2 z "
       d="m 32,8.7578125 -2.177734,1.9511715 a 5.0350226,5.0350226 0 0 1 -3.873047,1.257813 l -2.908203,-0.296875 -0.615235,2.857422 a 5.0350226,5.0350226 0 0 1 -2.394531,3.294922 l -2.527344,1.46875 1.183594,2.673828 a 5.0350226,5.0350226 0 0 1 0,4.070312 l -1.183594,2.673828 2.527344,1.46875 a 5.0350226,5.0350226 0 0 1 2.394531,3.294922 l 0.615235,2.857422 2.908203,-0.296875 a 5.0350226,5.0350226 0 0 1 3.873047,1.257813 L 32,39.242188 34.177734,37.291016 a 5.0350226,5.0350226 0 0 1 3.873047,-1.257813 l 2.908203,0.296875 0.615235,-2.857422 a 5.0350226,5.0350226 0 0 1 2.394531,-3.294922 l 2.527344,-1.46875 -1.183594,-2.673828 a 5.0350226,5.0350226 0 0 1 0,-4.070312 l 1.183594,-2.673828 -2.527344,-1.46875 a 5.0350226,5.0350226 0 0 1 -2.394531,-3.294922 l -0.615235,-2.857422 -2.908203,0.296875 a 5.0350226,5.0350226 0 0 1 -3.873047,-1.257813 z" />
  </g>
</svg>
