<?xml version="1.0" encoding="UTF-8" standalone="no"?>
<svg
   xmlns:dc="http://purl.org/dc/elements/1.1/"
   xmlns:cc="http://creativecommons.org/ns#"
   xmlns:rdf="http://www.w3.org/1999/02/22-rdf-syntax-ns#"
   xmlns:svg="http://www.w3.org/2000/svg"
   xmlns="http://www.w3.org/2000/svg"
   xmlns:xlink="http://www.w3.org/1999/xlink"
   xmlns:sodipodi="http://sodipodi.sourceforge.net/DTD/sodipodi-0.dtd"
   xmlns:inkscape="http://www.inkscape.org/namespaces/inkscape"
   width="64"
   height="64"
   viewBox="0 0 64 64"
   version="1.1"
   id="svg8"
   sodipodi:docname="thermometer.svg"
   inkscape:version="1.0.2 (e86c870879, 2021-01-15)">
  <defs
     id="defs2">
    <linearGradient
       inkscape:collect="always"
       id="linearGradient903">
      <stop
         style="stop-color:#ff2a2a;stop-opacity:1"
         offset="0"
         id="stop899" />
      <stop
         style="stop-color:#ff5555;stop-opacity:1"
         offset="1"
         id="stop901" />
    </linearGradient>
    <linearGradient
       inkscape:collect="always"
       id="linearGradient893">
      <stop
         style="stop-color:#c6c6c6;stop-opacity:1"
         offset="0"
         id="stop889" />
      <stop
         style="stop-color:#f8f8f8;stop-opacity:1"
         offset="1"
         id="stop891" />
    </linearGradient>
    <linearGradient
       inkscape:collect="always"
       id="linearGradient885">
      <stop
         style="stop-color:#888888;stop-opacity:1"
         offset="0"
         id="stop881" />
      <stop
         style="stop-color:#cbcbcb;stop-opacity:1"
         offset="1"
         id="stop883" />
    </linearGradient>
    <linearGradient
       inkscape:collect="always"
       id="linearGradient1228">
      <stop
         style="stop-color:#faecce;stop-opacity:1"
         offset="0"
         id="stop1224" />
      <stop
         style="stop-color:#fed678;stop-opacity:1"
         offset="1"
         id="stop1226" />
    </linearGradient>
    <linearGradient
       inkscape:collect="always"
       xlink:href="#linearGradient1228"
       id="linearGradient1230"
       x1="32"
       y1="22"
       x2="44"
       y2="32"
       gradientUnits="userSpaceOnUse" />
    <linearGradient
       inkscape:collect="always"
       xlink:href="#linearGradient885"
       id="linearGradient887"
       x1="48"
       y1="44"
       x2="16"
       y2="24"
       gradientUnits="userSpaceOnUse" />
    <linearGradient
       inkscape:collect="always"
       xlink:href="#linearGradient893"
       id="linearGradient895"
       x1="36"
       y1="20"
       x2="28"
       y2="20"
       gradientUnits="userSpaceOnUse" />
    <linearGradient
       inkscape:collect="always"
       xlink:href="#linearGradient903"
       id="linearGradient897"
       x1="44"
       y1="49"
       x2="28"
       y2="42"
       gradientUnits="userSpaceOnUse" />
  </defs>
  <sodipodi:namedview
     id="base"
     pagecolor="#ffffff"
     bordercolor="#666666"
     borderopacity="1.0"
     inkscape:pageopacity="0.0"
     inkscape:pageshadow="2"
     inkscape:zoom="7.9195959"
     inkscape:cx="21.797234"
     inkscape:cy="22.312921"
     inkscape:document-units="px"
     inkscape:current-layer="layer1"
     inkscape:document-rotation="0"
     showgrid="true"
     units="px"
     inkscape:snap-object-midpoints="true"
     inkscape:window-width="1920"
     inkscape:window-height="1016"
     inkscape:window-x="0"
     inkscape:window-y="0"
     inkscape:window-maximized="1"
     inkscape:snap-grids="true">
    <inkscape:grid
       type="xygrid"
       id="grid833"
       empspacing="4" />
  </sodipodi:namedview>
  <metadata
     id="metadata5">
    <rdf:RDF>
      <cc:Work
         rdf:about="">
        <dc:format>image/svg+xml</dc:format>
        <dc:type
           rdf:resource="http://purl.org/dc/dcmitype/StillImage" />
        <dc:title />
      </cc:Work>
    </rdf:RDF>
  </metadata>
  <g
     inkscape:label="Ebene 1"
     inkscape:groupmode="layer"
     id="layer1">
    <path
       id="path871"
       style="fill:url(#linearGradient895);stroke:url(#linearGradient887);stroke-width:8;stroke-linejoin:round;paint-order:markers stroke fill;fill-opacity:1"
       d="M 31.939453 4 A 4 4 0 0 0 28 8 A 4 4 0 0 0 28 8.0605469 L 28 45.070312 A 8 8 0 0 0 24 52 A 8 8 0 0 0 32 60 A 8 8 0 0 0 40 52 A 8 8 0 0 0 36 45.072266 L 36 8 A 4 4 0 0 0 32 4 A 4 4 0 0 0 31.939453 4 z " />
    <path
       id="path879"
       style="fill:url(#linearGradient897);stroke:none;stroke-width:8;stroke-linejoin:round;paint-order:markers stroke fill;fill-opacity:1"
       d="M 28 32 L 28 45.070312 A 8 8 0 0 0 24 52 A 8 8 0 0 0 32 60 A 8 8 0 0 0 40 52 A 8 8 0 0 0 36 45.072266 L 36 32 L 28 32 z " />
    <path
       style="fill:#666666;stroke:#4d4d4d;stroke-width:4;stroke-linejoin:round;stroke-opacity:1;paint-order:markers stroke fill;stroke-miterlimit:4;stroke-dasharray:none"
       d="m 28,14 h 4"
       id="path908" />
    <path
       style="fill:#666666;stroke:#4d4d4d;stroke-width:4;stroke-linejoin:round;stroke-miterlimit:4;stroke-dasharray:none;stroke-opacity:1;paint-order:markers stroke fill"
       d="m 28,22 h 4"
       id="path908-3" />
    <path
       style="fill:#666666;stroke:#4d4d4d;stroke-width:4;stroke-linejoin:round;stroke-miterlimit:4;stroke-dasharray:none;stroke-opacity:1;paint-order:markers stroke fill"
       d="m 28,30 h 4"
       id="path908-6" />
    <path
       style="fill:#666666;stroke:#4d4d4d;stroke-width:4;stroke-linejoin:round;stroke-miterlimit:4;stroke-dasharray:none;stroke-opacity:1;paint-order:markers stroke fill"
       d="m 28,38 h 4"
       id="path908-7" />
    <path
       id="path871-3"
       style="fill:#ffffff;fill-opacity:0.15813845;stroke:none;stroke-width:8;stroke-linejoin:round;paint-order:markers stroke fill"
       d="M 32 4 A 4 4 0 0 0 28.060547 8 A 4 4 0 0 0 28.060547 8.0605469 L 28.060547 45.070312 A 8 8 0 0 0 24.060547 52 A 8 8 0 0 0 32.060547 60 A 8 8 0 0 0 40.060547 52 A 8 8 0 0 0 36.060547 45.072266 L 36.060547 8 A 4 4 0 0 0 32.060547 4 A 4 4 0 0 0 32 4 z M 32.03125 6.0605469 C 32.035817 6.0605492 32.040355 6.0605123 32.044922 6.0605469 A 2.0607529 2.0607529 0 0 0 32.060547 6.0605469 C 33.076042 6.0605469 34 6.9845047 34 8 L 34 45.072266 A 2.0607529 2.0607529 0 0 0 35.03125 46.857422 C 36.826645 47.893994 37.999878 49.926856 38 52 C 38 55.10989 35.170437 57.939453 32.060547 57.939453 C 28.950656 57.939453 26.121094 55.10989 26.121094 52 C 26.120709 49.926372 27.295983 47.892283 29.091797 46.855469 A 2.0607529 2.0607529 0 0 0 30.121094 45.070312 L 30.121094 8.0605469 A 2.0607529 2.0607529 0 0 0 30.121094 8.0449219 C 30.12102 8.0351364 30.12102 8.0254105 30.121094 8.015625 A 2.0607529 2.0607529 0 0 0 30.121094 8 C 30.120979 6.9942167 31.025582 6.0757712 32.03125 6.0605469 z " />
  </g>
</svg>
