<?xml version="1.0" encoding="UTF-8" standalone="no"?>
<svg
   xmlns:dc="http://purl.org/dc/elements/1.1/"
   xmlns:cc="http://creativecommons.org/ns#"
   xmlns:rdf="http://www.w3.org/1999/02/22-rdf-syntax-ns#"
   xmlns:svg="http://www.w3.org/2000/svg"
   xmlns="http://www.w3.org/2000/svg"
   xmlns:xlink="http://www.w3.org/1999/xlink"
   xmlns:sodipodi="http://sodipodi.sourceforge.net/DTD/sodipodi-0.dtd"
   xmlns:inkscape="http://www.inkscape.org/namespaces/inkscape"
   width="64"
   height="64"
   viewBox="0 0 64 64"
   version="1.1"
   id="svg8"
   sodipodi:docname="vcs_merge.svg"
   inkscape:version="1.0.2 (e86c870879, 2021-01-15)">
  <defs
     id="defs2">
    <linearGradient
       inkscape:collect="always"
       id="linearGradient1228">
      <stop
         style="stop-color:#faecce;stop-opacity:1"
         offset="0"
         id="stop1224" />
      <stop
         style="stop-color:#fed678;stop-opacity:1"
         offset="1"
         id="stop1226" />
    </linearGradient>
    <linearGradient
       inkscape:collect="always"
       xlink:href="#linearGradient1228"
       id="linearGradient1230"
       x1="32"
       y1="22"
       x2="44"
       y2="32"
       gradientUnits="userSpaceOnUse" />
    <linearGradient
       inkscape:collect="always"
       xlink:href="#linearGradient887"
       id="linearGradient889"
       x1="36"
       y1="56"
       x2="8"
       y2="8"
       gradientUnits="userSpaceOnUse" />
    <linearGradient
       inkscape:collect="always"
       id="linearGradient887">
      <stop
         style="stop-color:#73abff;stop-opacity:1"
         offset="0"
         id="stop883" />
      <stop
         style="stop-color:#3a89ff;stop-opacity:1"
         offset="1"
         id="stop885" />
    </linearGradient>
  </defs>
  <sodipodi:namedview
     id="base"
     pagecolor="#ffffff"
     bordercolor="#666666"
     borderopacity="1.0"
     inkscape:pageopacity="0.0"
     inkscape:pageshadow="2"
     inkscape:zoom="3.959798"
     inkscape:cx="21.794739"
     inkscape:cy="31.783874"
     inkscape:document-units="px"
     inkscape:current-layer="g847"
     inkscape:document-rotation="0"
     showgrid="true"
     units="px"
     inkscape:snap-object-midpoints="true"
     inkscape:window-width="1920"
     inkscape:window-height="1016"
     inkscape:window-x="0"
     inkscape:window-y="0"
     inkscape:window-maximized="1"
     inkscape:snap-grids="true"
     inkscape:snap-center="true"
     inkscape:snap-global="true"
     inkscape:snap-bbox="true">
    <inkscape:grid
       type="xygrid"
       id="grid833"
       empspacing="4" />
  </sodipodi:namedview>
  <metadata
     id="metadata5">
    <rdf:RDF>
      <cc:Work
         rdf:about="">
        <dc:format>image/svg+xml</dc:format>
        <dc:type
           rdf:resource="http://purl.org/dc/dcmitype/StillImage" />
        <dc:title></dc:title>
      </cc:Work>
    </rdf:RDF>
  </metadata>
  <g
     inkscape:label="Ebene 1"
     inkscape:groupmode="layer"
     id="layer1">
    <g
       id="g847">
      <path
         style="color:#000000;font-style:normal;font-variant:normal;font-weight:normal;font-stretch:normal;font-size:medium;line-height:normal;font-family:sans-serif;font-variant-ligatures:normal;font-variant-position:normal;font-variant-caps:normal;font-variant-numeric:normal;font-variant-alternates:normal;font-variant-east-asian:normal;font-feature-settings:normal;font-variation-settings:normal;text-indent:0;text-align:start;text-decoration:none;text-decoration-line:none;text-decoration-style:solid;text-decoration-color:#000000;letter-spacing:normal;word-spacing:normal;text-transform:none;writing-mode:lr-tb;direction:ltr;text-orientation:mixed;dominant-baseline:auto;baseline-shift:baseline;text-anchor:start;white-space:normal;shape-padding:0;shape-margin:0;inline-size:0;clip-rule:nonzero;display:inline;overflow:visible;visibility:visible;isolation:auto;mix-blend-mode:normal;color-interpolation:sRGB;color-interpolation-filters:linearRGB;solid-color:#000000;solid-opacity:1;vector-effect:none;fill:#37c837;fill-opacity:1;fill-rule:nonzero;stroke:#2ca02c;stroke-linecap:round;stroke-linejoin:round;stroke-miterlimit:4;stroke-dasharray:none;stroke-dashoffset:0;stroke-opacity:1;paint-order:markers stroke fill;color-rendering:auto;image-rendering:auto;shape-rendering:auto;text-rendering:auto;enable-background:accumulate;stop-color:#000000;stop-opacity:1;opacity:1;stroke-width:8"
         d="M 20.046875 28 A 2 2 0 0 0 18.142578 29.257812 A 2 2 0 0 0 19.257812 31.857422 L 48 43.353516 L 48 58 A 2 2 0 0 0 50 60 A 2 2 0 0 0 52 58 L 52 42 A 2.0002 2.0002 0 0 0 50.742188 40.142578 L 20.742188 28.142578 A 2 2 0 0 0 20.046875 28 z "
         id="path908" />
      <path
         id="path873"
         style="fill:url(#linearGradient889);fill-opacity:1;stroke:#0055d4;stroke-width:8;stroke-linecap:round;stroke-linejoin:round;stroke-miterlimit:4;stroke-dasharray:none;paint-order:markers stroke fill"
         d="M 20,4 8,20 h 8 v 36 c 0,2.209139 1.790861,4 4,4 2.209139,0 4,-1.790861 4,-4 1.53e-4,-0.02018 1.53e-4,-0.04037 0,-0.06055 V 20 h 8 z"
         sodipodi:nodetypes="cccssccccc" />
      <path
         id="path873-3-6"
         style="fill:#ffffff;fill-opacity:0.167283;stroke:none;stroke-width:8;stroke-linecap:round;stroke-linejoin:round;stroke-miterlimit:4;stroke-dasharray:none;paint-order:markers stroke fill"
         d="M 20,4 8,20 h 8 v 36 c 0,2.209139 1.790861,4 4,4 2.209139,0 4,-1.790861 4,-4 1.53e-4,-0.02018 1.53e-4,-0.04037 0,-0.06055 V 20 h 8 z M 20,7.3320312 28,18 h -4 a 2.0002,2.0002 0 0 0 -2,2 v 35.939453 a 2.0002,2.0002 0 0 0 0,0.01563 c 7.6e-5,0.01007 7.6e-5,0.01923 0,0.0293 a 2.0002,2.0002 0 0 0 0,0.01562 c 0,1.128259 -0.871741,2 -2,2 -1.128259,0 -2,-0.871741 -2,-2 v -36 a 2.0002,2.0002 0 0 0 -2,-2 h -4 z" />
    </g>
  </g>
</svg>
