<?xml version="1.0" encoding="UTF-8" standalone="no"?>
<svg
   xmlns:dc="http://purl.org/dc/elements/1.1/"
   xmlns:cc="http://creativecommons.org/ns#"
   xmlns:rdf="http://www.w3.org/1999/02/22-rdf-syntax-ns#"
   xmlns:svg="http://www.w3.org/2000/svg"
   xmlns="http://www.w3.org/2000/svg"
   xmlns:xlink="http://www.w3.org/1999/xlink"
   xmlns:sodipodi="http://sodipodi.sourceforge.net/DTD/sodipodi-0.dtd"
   xmlns:inkscape="http://www.inkscape.org/namespaces/inkscape"
   width="64"
   height="64"
   viewBox="0 0 64 64"
   version="1.1"
   id="svg8"
   sodipodi:docname="vcs_fork.svg"
   inkscape:version="1.0.2 (e86c870879, 2021-01-15)">
  <defs
     id="defs2">
    <linearGradient
       inkscape:collect="always"
       id="linearGradient887">
      <stop
         style="stop-color:#73abff;stop-opacity:1"
         offset="0"
         id="stop883" />
      <stop
         style="stop-color:#3a89ff;stop-opacity:1"
         offset="1"
         id="stop885" />
    </linearGradient>
    <linearGradient
       inkscape:collect="always"
       id="linearGradient1228">
      <stop
         style="stop-color:#faecce;stop-opacity:1"
         offset="0"
         id="stop1224" />
      <stop
         style="stop-color:#fed678;stop-opacity:1"
         offset="1"
         id="stop1226" />
    </linearGradient>
    <linearGradient
       inkscape:collect="always"
       xlink:href="#linearGradient1228"
       id="linearGradient1230"
       x1="32"
       y1="22"
       x2="44"
       y2="32"
       gradientUnits="userSpaceOnUse" />
    <linearGradient
       inkscape:collect="always"
       xlink:href="#linearGradient887"
       id="linearGradient889"
       x1="36"
       y1="56"
       x2="8"
       y2="8"
       gradientUnits="userSpaceOnUse" />
  </defs>
  <sodipodi:namedview
     id="base"
     pagecolor="#ffffff"
     bordercolor="#666666"
     borderopacity="1.0"
     inkscape:pageopacity="0.0"
     inkscape:pageshadow="2"
     inkscape:zoom="5.6"
     inkscape:cx="37.162016"
     inkscape:cy="30.67091"
     inkscape:document-units="px"
     inkscape:current-layer="g847"
     inkscape:document-rotation="0"
     showgrid="true"
     units="px"
     inkscape:snap-object-midpoints="true"
     inkscape:window-width="1920"
     inkscape:window-height="1016"
     inkscape:window-x="0"
     inkscape:window-y="0"
     inkscape:window-maximized="1"
     inkscape:snap-grids="true"
     inkscape:snap-center="true"
     inkscape:snap-global="true">
    <inkscape:grid
       type="xygrid"
       id="grid833"
       empspacing="4" />
  </sodipodi:namedview>
  <metadata
     id="metadata5">
    <rdf:RDF>
      <cc:Work
         rdf:about="">
        <dc:format>image/svg+xml</dc:format>
        <dc:type
           rdf:resource="http://purl.org/dc/dcmitype/StillImage" />
        <dc:title />
      </cc:Work>
    </rdf:RDF>
  </metadata>
  <g
     inkscape:label="Ebene 1"
     inkscape:groupmode="layer"
     id="layer1">
    <g
       id="g847">
      <path
         id="path881"
         style="color:#000000;font-style:normal;font-variant:normal;font-weight:normal;font-stretch:normal;font-size:medium;line-height:normal;font-family:sans-serif;font-variant-ligatures:normal;font-variant-position:normal;font-variant-caps:normal;font-variant-numeric:normal;font-variant-alternates:normal;font-variant-east-asian:normal;font-feature-settings:normal;font-variation-settings:normal;text-indent:0;text-align:start;text-decoration:none;text-decoration-line:none;text-decoration-style:solid;text-decoration-color:#000000;letter-spacing:normal;word-spacing:normal;text-transform:none;writing-mode:lr-tb;direction:ltr;text-orientation:mixed;dominant-baseline:auto;baseline-shift:baseline;text-anchor:start;white-space:normal;shape-padding:0;shape-margin:0;inline-size:0;clip-rule:nonzero;display:inline;overflow:visible;visibility:visible;isolation:auto;mix-blend-mode:normal;color-interpolation:sRGB;color-interpolation-filters:linearRGB;solid-color:#000000;solid-opacity:1;vector-effect:none;fill:#37c837;fill-opacity:1;fill-rule:nonzero;stroke:#2ca02c;stroke-linecap:round;stroke-linejoin:round;stroke-miterlimit:4;stroke-dasharray:none;stroke-dashoffset:0;stroke-opacity:1;paint-order:markers stroke fill;color-rendering:auto;image-rendering:auto;shape-rendering:auto;text-rendering:auto;enable-background:accumulate;stop-color:#000000;stop-opacity:1;opacity:1;stroke-width:8"
         d="M 50 6 L 41 18 L 48 18 L 48 34.654297 C 46.943047 35.084703 41.858075 37.154342 35.376953 39.769531 C 28.25588 42.642947 20.487713 45.730007 19.367188 46.103516 A 2 2 0 0 0 18.103516 48.632812 A 2 2 0 0 0 20.632812 49.896484 C 22.512286 49.269993 29.74412 46.357053 36.873047 43.480469 C 44.001974 40.603884 50.753906 37.851564 50.753906 37.851562 A 2.0002 2.0002 0 0 0 52 36 L 52 18 L 59 18 L 50 6 z " />
      <path
         id="path873"
         style="fill:url(#linearGradient889);stroke:#0055d4;stroke-width:8;stroke-linecap:round;stroke-linejoin:round;stroke-miterlimit:4;stroke-dasharray:none;paint-order:markers stroke fill;fill-opacity:1"
         d="M 20,4 8,20 h 8 v 36 c 0,2.209139 1.790861,4 4,4 2.209139,0 4,-1.790861 4,-4 1.53e-4,-0.02018 1.53e-4,-0.04037 0,-0.06055 V 20 h 8 z"
         sodipodi:nodetypes="cccssccccc" />
      <path
         id="path873-3-6"
         style="fill:#ffffff;stroke:none;stroke-width:8;stroke-linecap:round;stroke-linejoin:round;stroke-miterlimit:4;stroke-dasharray:none;paint-order:markers stroke fill;fill-opacity:0.16728324"
         d="M 20 4 L 8 20 L 16 20 L 16 56 C 16 58.209139 17.790861 60 20 60 C 22.209139 60 24 58.209139 24 56 C 24.000153 55.97982 24.000153 55.959633 24 55.939453 L 24 20 L 32 20 L 20 4 z M 20 7.3320312 L 28 18 L 24 18 A 2.0002 2.0002 0 0 0 22 20 L 22 55.939453 A 2.0002 2.0002 0 0 0 22 55.955078 C 22.000076 55.965146 22.000076 55.974307 22 55.984375 A 2.0002 2.0002 0 0 0 22 56 C 22 57.128259 21.128259 58 20 58 C 18.871741 58 18 57.128259 18 56 L 18 20 A 2.0002 2.0002 0 0 0 16 18 L 12 18 L 20 7.3320312 z " />
    </g>
  </g>
</svg>
